<?xml version="1.0" encoding="UTF-8" standalone="no"?>
<svg
   xmlns:dc="http://purl.org/dc/elements/1.1/"
   xmlns:cc="http://web.resource.org/cc/"
   xmlns:rdf="http://www.w3.org/1999/02/22-rdf-syntax-ns#"
   xmlns:svg="http://www.w3.org/2000/svg"
   xmlns="http://www.w3.org/2000/svg"
   xmlns:sodipodi="http://sodipodi.sourceforge.net/DTD/sodipodi-0.dtd"
   xmlns:inkscape="http://www.inkscape.org/namespaces/inkscape"
   version="1.0"
   width="48"
   height="48"
   viewBox="0 0 451 451"
   preserveAspectRatio="xMidYMid meet"
   id="svg2"
   sodipodi:version="0.32"
   inkscape:version="0.45.1"
   sodipodi:docname="Namenlos.svg"
   sodipodi:docbase="/home/bjoern/Desktop"
   inkscape:output_extension="org.inkscape.output.svg.inkscape">
  <defs
     id="defs15" />
  <sodipodi:namedview
     inkscape:window-height="1172"
     inkscape:window-width="1555"
     inkscape:pageshadow="2"
     inkscape:pageopacity="0.0"
     guidetolerance="10.0"
     gridtolerance="10.0"
     objecttolerance="10.0"
     borderopacity="1.0"
     bordercolor="#666666"
     pagecolor="#ffffff"
     id="base"
     width="48px"
     height="48px"
     inkscape:zoom="19.791667"
     inkscape:cx="24"
     inkscape:cy="23.5637"
     inkscape:window-x="45"
     inkscape:window-y="28"
     inkscape:current-layer="svg2"
     showgrid="true" />
  <metadata
     id="metadata4">
Created by potrace 1.7, written by Peter Selinger 2001-2005
<rdf:RDF>
  <cc:Work
     rdf:about="">
    <dc:format>image/svg+xml</dc:format>
    <dc:type
       rdf:resource="http://purl.org/dc/dcmitype/StillImage" />
    <dc:title>CVS Icon</dc:title>
    <dc:creator>
      <cc:Agent>
        <dc:title>Björn Michaelsen</dc:title>
      </cc:Agent>
    </dc:creator>
    <cc:license
       rdf:resource="http://creativecommons.org/licenses/GPL/2.0/" />
    <dc:publisher>
      <cc:Agent>
        <dc:title>Björn Michaelsen</dc:title>
      </cc:Agent>
    </dc:publisher>
    <dc:date>2007/11/05</dc:date>
    <dc:source>http://etc-proposals.berlios.de</dc:source>
  </cc:Work>
  <cc:License
     rdf:about="http://creativecommons.org/licenses/GPL/2.0/">
    <cc:permits
       rdf:resource="http://web.resource.org/cc/Reproduction" />
    <cc:permits
       rdf:resource="http://web.resource.org/cc/Distribution" />
    <cc:requires
       rdf:resource="http://web.resource.org/cc/Notice" />
    <cc:permits
       rdf:resource="http://web.resource.org/cc/DerivativeWorks" />
    <cc:requires
       rdf:resource="http://web.resource.org/cc/ShareAlike" />
    <cc:requires
       rdf:resource="http://web.resource.org/cc/SourceCode" />
  </cc:License>
</rdf:RDF>
</metadata>
  <g
     transform="matrix(9.3958e-2,0,0,-9.3958e-2,0,451)"
     id="g6"
     style="fill:#000000;stroke:none">
    <path
       d="M 1100,3164 C 928,3133 819,3084 722,2995 C 547,2832 470,2563 511,2263 C 551,1967 737,1750 1007,1683 C 1114,1656 1332,1659 1434,1688 C 1507,1709 1637,1767 1668,1792 C 1676,1799 1680,1836 1680,1907 L 1680,2012 L 1633,1970 C 1537,1886 1362,1820 1230,1820 C 969,1820 801,1948 733,2200 C 708,2292 708,2539 733,2630 C 784,2817 878,2926 1035,2980 C 1119,3009 1256,3016 1350,2996 C 1442,2977 1570,2915 1633,2860 L 1680,2818 L 1680,2924 L 1680,3030 L 1639,3056 C 1529,3125 1402,3160 1245,3165 C 1179,3167 1114,3167 1100,3164 z "
       id="path8" />
    <path
       d="M 3685,3164 C 3508,3136 3369,3041 3319,2912 C 3289,2837 3286,2690 3313,2613 C 3361,2476 3489,2402 3790,2341 C 3928,2313 3998,2284 4046,2236 C 4133,2150 4132,2004 4045,1914 C 3923,1788 3611,1792 3352,1924 L 3299,1951 L 3302,1848 L 3305,1746 L 3400,1718 C 3670,1640 3938,1643 4105,1727 C 4215,1782 4284,1870 4309,1988 C 4342,2147 4301,2291 4196,2387 C 4126,2451 4035,2490 3870,2525 C 3615,2579 3561,2603 3523,2680 C 3469,2787 3513,2913 3623,2968 C 3752,3032 3982,3017 4183,2931 L 4230,2911 L 4230,3005 L 4230,3099 L 4177,3115 C 4071,3146 3972,3160 3845,3164 C 3774,3167 3702,3166 3685,3164 z "
       id="path10" />
    <path
       d="M 1830,3098 C 1841,3069 1966,2741 2108,2370 L 2366,1695 L 2480,1695 L 2595,1695 L 2862,2395 C 3009,2780 3134,3107 3139,3123 L 3149,3150 L 3046,3150 L 2944,3150 L 2715,2540 C 2588,2205 2483,1930 2480,1930 C 2477,1930 2372,2205 2246,2540 L 2017,3150 L 1914,3150 L 1810,3150 L 1830,3098 z "
       id="path12" />
  </g>
</svg>
