<?xml version="1.0" encoding="UTF-8" standalone="no"?>
<!-- Created with Inkscape (http://www.inkscape.org/) -->
<svg
   xmlns:svg="http://www.w3.org/2000/svg"
   xmlns="http://www.w3.org/2000/svg"
   xmlns:xlink="http://www.w3.org/1999/xlink"
   version="1.0"
   width="48"
   height="48"
   viewBox="0 0 451 451"
   id="svg2">
  <defs
     id="defs15">
    <linearGradient
       id="linearGradient6732">
      <stop
         style="stop-color:#ffffff;stop-opacity:1"
         offset="0"
         id="stop6734" />
      <stop
         style="stop-color:#dddddd;stop-opacity:1"
         offset="1"
         id="stop6736" />
    </linearGradient>
    <linearGradient
       x1="37.926636"
       y1="37.668934"
       x2="5.4959755"
       y2="10.982666"
       id="linearGradient2457"
       xlink:href="#linearGradient6732"
       gradientUnits="userSpaceOnUse"
       gradientTransform="matrix(0.982804,0,0,1.3,-40.71647,-6.281051)" />
    <linearGradient
       id="linearGradient3702">
      <stop
         style="stop-color:#000000;stop-opacity:0"
         offset="0"
         id="stop3704" />
      <stop
         style="stop-color:#000000;stop-opacity:1"
         offset="0.5"
         id="stop3710" />
      <stop
         style="stop-color:#000000;stop-opacity:0"
         offset="1"
         id="stop3706" />
    </linearGradient>
    <linearGradient
       x1="25.058096"
       y1="47.027729"
       x2="25.058096"
       y2="39.999443"
       id="linearGradient2098"
       xlink:href="#linearGradient3702"
       gradientUnits="userSpaceOnUse" />
    <radialGradient
       cx="4.9929786"
       cy="43.5"
       r="2.5"
       fx="4.9929786"
       fy="43.5"
       id="radialGradient2096"
       xlink:href="#linearGradient3688"
       gradientUnits="userSpaceOnUse"
       gradientTransform="matrix(2.003784,0,0,1.4,-20.01187,-104.4)" />
    <linearGradient
       id="linearGradient3688">
      <stop
         style="stop-color:#000000;stop-opacity:1"
         offset="0"
         id="stop3690" />
      <stop
         style="stop-color:#000000;stop-opacity:0"
         offset="1"
         id="stop3692" />
    </linearGradient>
    <radialGradient
       cx="4.9929786"
       cy="43.5"
       r="2.5"
       fx="4.9929786"
       fy="43.5"
       id="radialGradient2094"
       xlink:href="#linearGradient3688"
       gradientUnits="userSpaceOnUse"
       gradientTransform="matrix(2.003784,0,0,1.4,27.98813,-17.4)" />
  </defs>
  <g
     id="layer1">
    <g
       transform="matrix(9.3958333,0,0,9.3958333,388.43907,-8.6342294)"
       id="g5646">
      <g
         transform="matrix(1.1,0,0,1,-43.74165,5.918957)"
         id="layer6">
        <g
           transform="matrix(1,0,0,0.555556,-4.549998e-7,13.88887)"
           id="g2043">
          <g
             style="display:inline"
             id="g2036">
            <g
               transform="matrix(1.052632,0,0,1.285713,-1.263158,-13.42854)"
               style="opacity:0.4"
               id="g3712">
              <rect
                 width="5"
                 height="7"
                 x="38"
                 y="40"
                 style="opacity:1;fill:url(#radialGradient2094);fill-opacity:1;stroke:none;stroke-width:1;stroke-linecap:round;stroke-linejoin:miter;stroke-miterlimit:4;stroke-dasharray:none;stroke-opacity:1"
                 id="rect2801" />
              <rect
                 width="5"
                 height="7"
                 x="-10"
                 y="-47"
                 transform="scale(-1,-1)"
                 style="opacity:1;fill:url(#radialGradient2096);fill-opacity:1;stroke:none;stroke-width:1;stroke-linecap:round;stroke-linejoin:miter;stroke-miterlimit:4;stroke-dasharray:none;stroke-opacity:1"
                 id="rect3696" />
              <rect
                 width="28"
                 height="7.0000005"
                 x="10"
                 y="40"
                 style="opacity:1;fill:url(#linearGradient2098);fill-opacity:1;stroke:none;stroke-width:1;stroke-linecap:round;stroke-linejoin:miter;stroke-miterlimit:4;stroke-dasharray:none;stroke-opacity:1"
                 id="rect3700" />
            </g>
          </g>
        </g>
        <g
           transform="translate(50.6887,6.21499)"
           style="display:inline"
           id="g2285" />
        <g
           transform="matrix(0.186703,0,0,0.186703,29.5814,63.83798)"
           id="g891" />
      </g>
      <g
         style="display:inline"
         id="g5657" />
      <g
         style="display:inline"
         id="layer5">
        <rect
           width="38.943569"
           height="39"
           rx="1.4314268"
           ry="1.4314268"
           x="-36.785221"
           y="5.4189425"
           style="color:#000000;fill:url(#linearGradient2457);fill-opacity:1;fill-rule:evenodd;stroke:#939393;stroke-width:1.00000012;stroke-linecap:butt;stroke-linejoin:miter;marker:none;marker-start:none;marker-mid:none;marker-end:none;stroke-miterlimit:4;stroke-dasharray:none;stroke-dashoffset:0;stroke-opacity:1;visibility:visible;display:inline;overflow:visible"
           id="rect2373" />
        <rect
           width="36.999981"
           height="37.000008"
           rx="0.5728178"
           ry="0.5728178"
           x="-35.841633"
           y="6.4189281"
           style="color:#000000;fill:none;fill-opacity:1;fill-rule:evenodd;stroke:#ffffff;stroke-width:0.99999958;stroke-linecap:butt;stroke-linejoin:miter;marker:none;marker-start:none;marker-mid:none;marker-end:none;stroke-miterlimit:4;stroke-dasharray:none;stroke-dashoffset:0;stroke-opacity:1;visibility:visible;display:inline;overflow:visible"
           id="rect2423" />
      </g>
    </g>
  </g>
  <g
     transform="matrix(8.6088782e-2,0,0,-9.3958e-2,22.708501,447.39772)"
     style="fill:#000000;stroke:none"
     id="g6">
    <path
       d="M 1100,3164 C 928,3133 819,3084 722,2995 C 547,2832 470,2563 511,2263 C 551,1967 737,1750 1007,1683 C 1114,1656 1332,1659 1434,1688 C 1507,1709 1637,1767 1668,1792 C 1676,1799 1680,1836 1680,1907 L 1680,2012 L 1633,1970 C 1537,1886 1362,1820 1230,1820 C 969,1820 801,1948 733,2200 C 708,2292 708,2539 733,2630 C 784,2817 878,2926 1035,2980 C 1119,3009 1256,3016 1350,2996 C 1442,2977 1570,2915 1633,2860 L 1680,2818 L 1680,2924 L 1680,3030 L 1639,3056 C 1529,3125 1402,3160 1245,3165 C 1179,3167 1114,3167 1100,3164 z "
       id="path8" />
    <path
       d="M 3685,3164 C 3508,3136 3369,3041 3319,2912 C 3289,2837 3286,2690 3313,2613 C 3361,2476 3489,2402 3790,2341 C 3928,2313 3998,2284 4046,2236 C 4133,2150 4132,2004 4045,1914 C 3923,1788 3611,1792 3352,1924 L 3299,1951 L 3302,1848 L 3305,1746 L 3400,1718 C 3670,1640 3938,1643 4105,1727 C 4215,1782 4284,1870 4309,1988 C 4342,2147 4301,2291 4196,2387 C 4126,2451 4035,2490 3870,2525 C 3615,2579 3561,2603 3523,2680 C 3469,2787 3513,2913 3623,2968 C 3752,3032 3982,3017 4183,2931 L 4230,2911 L 4230,3005 L 4230,3099 L 4177,3115 C 4071,3146 3972,3160 3845,3164 C 3774,3167 3702,3166 3685,3164 z "
       id="path10" />
    <path
       d="M 1830,3098 C 1841,3069 1966,2741 2108,2370 L 2366,1695 L 2480,1695 L 2595,1695 L 2862,2395 C 3009,2780 3134,3107 3139,3123 L 3149,3150 L 3046,3150 L 2944,3150 L 2715,2540 C 2588,2205 2483,1930 2480,1930 C 2477,1930 2372,2205 2246,2540 L 2017,3150 L 1914,3150 L 1810,3150 L 1830,3098 z "
       id="path12" />
  </g>
</svg>
